<?xml version="1.0" encoding="UTF-8" ?>
<!DOCTYPE svg PUBLIC "-//W3C//DTD SVG 1.1//EN" "http://www.w3.org/Graphics/SVG/1.1/DTD/svg11.dtd">
<svg width="200pt" height="88pt" viewBox="0 0 200 88" version="1.1" xmlns="http://www.w3.org/2000/svg">
<path fill="#ffffff" d=" M 0.00 0.00 L 200.00 0.00 L 200.00 88.00 L 0.00 88.00 L 0.00 0.00 Z" />
<path fill="#040100" d=" M 113.27 0.65 C 116.23 2.28 118.52 4.81 121.03 7.01 C 140.98 24.76 160.88 42.57 180.83 60.32 C 174.22 60.34 167.62 60.36 161.01 60.31 C 145.04 45.66 129.05 31.03 113.06 16.40 C 109.38 20.73 105.59 24.97 101.98 29.37 C 111.70 39.53 121.62 49.49 131.22 59.75 C 114.80 46.49 98.40 33.19 82.03 19.85 C 81.07 19.13 80.18 18.22 79.00 17.88 C 75.99 20.26 73.69 23.40 70.98 26.10 C 83.62 37.50 96.44 48.71 109.04 60.15 C 94.03 51.21 79.11 42.11 64.10 33.17 C 61.65 35.82 59.18 38.45 56.72 41.08 C 66.03 47.41 75.43 53.60 84.67 60.04 C 73.41 55.84 62.28 51.29 51.07 46.93 C 46.82 51.39 42.63 55.90 38.37 60.36 C 30.40 60.31 22.42 60.37 14.45 60.32 C 34.54 40.56 54.38 20.53 74.64 0.95 C 81.28 8.03 88.08 14.96 94.83 21.94 C 100.95 14.81 107.23 7.84 113.27 0.65 Z" />
<path fill="#040100" d=" M 1.05 71.92 C 1.04 68.38 4.93 66.73 7.91 66.34 C 12.34 65.61 16.55 67.34 20.82 68.19 C 19.99 69.81 19.14 71.43 18.34 73.07 C 15.96 69.43 11.00 69.11 7.13 69.89 C 5.67 70.16 4.51 71.83 5.54 73.14 C 9.81 75.62 15.51 73.22 19.55 76.47 C 22.54 79.10 21.17 84.40 17.50 85.70 C 12.20 87.88 6.11 86.98 0.87 85.02 C 1.33 83.69 1.81 82.35 2.29 81.02 C 6.11 83.65 11.37 84.91 15.64 82.63 C 16.93 82.22 17.00 80.66 16.39 79.68 C 11.97 77.63 6.33 79.87 2.36 76.55 C 0.82 75.56 1.03 73.50 1.05 71.92 Z" />
<path fill="#040100" d=" M 108.37 66.35 C 110.70 66.46 113.03 66.48 115.36 66.42 C 114.92 67.54 115.04 68.60 115.72 69.61 C 117.40 72.76 119.26 75.83 120.97 78.97 C 123.09 74.76 126.00 70.92 127.49 66.40 C 129.54 66.45 131.59 66.45 133.64 66.36 C 132.79 73.10 132.90 80.06 133.59 86.82 C 131.81 86.77 130.03 86.77 128.25 86.83 C 129.36 82.10 128.64 77.18 128.72 72.37 C 126.31 76.81 123.98 81.31 121.43 85.67 C 121.16 85.74 120.61 85.88 120.34 85.95 C 117.67 81.45 115.37 76.74 112.77 72.20 C 112.74 76.59 112.80 80.99 112.72 85.38 C 113.11 85.71 113.90 86.38 114.29 86.71 C 112.31 86.73 110.33 86.76 108.35 86.86 C 109.19 83.63 108.79 80.27 108.87 76.98 C 108.79 73.43 109.17 69.84 108.37 66.35 Z" />
<path fill="#040100" d=" M 182.18 69.31 C 187.84 70.10 193.62 69.82 199.31 69.46 C 199.25 70.28 199.14 71.93 199.08 72.75 C 196.95 72.62 194.82 72.58 192.69 72.54 C 192.73 77.30 192.60 82.07 192.81 86.83 C 191.35 86.78 189.89 86.74 188.43 86.73 C 189.84 82.14 188.88 77.28 189.17 72.57 C 186.87 72.57 184.57 72.62 182.28 72.80 C 182.26 71.64 182.23 70.47 182.18 69.31 Z" />
<path fill="#040100" d=" M 27.40 69.69 C 29.01 69.72 30.63 69.74 32.24 69.77 C 34.99 74.36 39.37 77.65 42.80 81.70 C 42.78 77.70 43.13 73.66 42.40 69.70 C 43.44 69.70 45.50 69.71 46.53 69.71 C 45.92 75.40 45.95 81.18 46.50 86.88 C 45.09 86.79 43.68 86.72 42.28 86.65 C 39.19 81.98 34.74 78.42 31.13 74.18 C 31.20 78.39 30.72 82.65 31.54 86.82 C 30.51 86.82 28.45 86.81 27.42 86.81 C 27.96 81.13 27.95 75.37 27.40 69.69 Z" />
<path fill="#040100" d=" M 56.43 70.69 C 61.45 68.61 68.88 69.09 71.68 74.43 C 74.23 79.12 71.25 85.59 65.97 86.56 C 61.88 87.24 56.99 87.31 53.86 84.14 C 50.00 80.26 51.30 72.79 56.43 70.69 Z" />
<path fill="#040100" d=" M 74.60 69.71 C 76.16 69.73 77.71 69.73 79.27 69.72 C 79.54 74.19 81.95 78.12 83.16 82.36 C 84.39 78.63 86.20 75.08 87.02 71.23 L 86.45 69.72 C 88.14 69.74 89.84 69.73 91.53 69.70 C 91.88 74.05 93.93 78.03 95.65 81.98 C 96.74 77.83 99.48 74.10 99.48 69.70 C 100.60 69.71 102.86 69.73 103.98 69.74 C 101.38 75.22 98.94 80.90 97.56 86.83 C 96.02 86.77 94.47 86.74 92.93 86.71 C 92.62 82.37 90.40 78.50 89.26 74.35 C 87.92 78.03 86.43 81.65 84.95 85.27 C 85.11 85.64 85.43 86.38 85.59 86.75 C 84.05 86.74 82.52 86.73 80.99 86.72 C 79.49 80.87 77.42 75.06 74.60 69.71 Z" />
<path fill="#040100" d=" M 140.62 69.72 C 145.89 69.66 151.17 70.02 156.42 69.42 C 156.41 70.27 156.38 71.98 156.36 72.83 C 152.49 72.47 148.61 72.58 144.73 72.59 C 144.73 73.57 144.72 75.52 144.72 76.49 C 147.45 76.44 150.27 76.83 152.91 75.94 C 152.90 77.19 152.91 78.44 152.93 79.69 C 150.23 79.31 147.49 79.29 144.77 79.31 C 144.74 80.42 144.68 82.62 144.65 83.72 C 148.68 84.26 152.80 84.44 156.78 83.47 C 156.75 84.32 156.69 86.03 156.66 86.89 C 151.48 86.64 146.30 86.72 141.12 86.80 C 141.03 81.11 141.68 75.35 140.62 69.72 Z" />
<path fill="#040100" d=" M 162.54 69.71 C 167.77 69.64 173.03 70.08 178.23 69.37 C 178.22 70.24 178.20 71.97 178.19 72.83 C 174.33 72.47 170.46 72.59 166.59 72.58 C 166.59 73.57 166.59 75.53 166.59 76.52 C 169.33 76.52 172.07 76.51 174.81 76.29 C 174.80 77.13 174.78 78.81 174.77 79.65 C 172.05 79.33 169.32 79.29 166.59 79.30 C 166.59 80.82 166.58 82.34 166.58 83.87 C 170.58 83.84 174.60 84.08 178.59 83.56 C 178.56 84.39 178.50 86.05 178.48 86.88 C 173.17 86.65 167.87 86.70 162.56 86.81 C 163.03 81.13 163.06 75.38 162.54 69.71 Z" />
<path fill="#ffffff" d=" M 58.37 73.31 C 62.21 71.02 68.54 73.07 68.79 77.97 C 69.14 83.61 61.19 86.23 57.40 82.56 C 54.23 80.23 55.00 75.04 58.37 73.31 Z" />
</svg>
